<svg xmlns="http://www.w3.org/2000/svg" width="30" height="30"><path style="stroke:none;fill-rule:nonzero;fill:#7c7c7c;fill-opacity:1" d="M15 3a11.963 11.963 0 0 0-7.793 2.875 1.002 1.002 0 0 0 .3 1.73c.348.118.731.036.997-.21A9.946 9.946 0 0 1 15 5a9.984 9.984 0 0 1 9.95 9H22l4 6 4-6h-3.05C26.437 7.852 21.276 3 15 3ZM4 10l-4 6h3.05C3.564 22.148 8.724 27 15 27c2.969 0 5.695-1.082 7.793-2.875a1.002 1.002 0 0 0-.3-1.73 1.007 1.007 0 0 0-1 .21A9.928 9.928 0 0 1 15 25a9.99 9.99 0 0 1-9.953-9H8Zm0 0"/></svg>